<svg width="4" height="10" viewBox="0 0 4 10" fill="none" xmlns="http://www.w3.org/2000/svg">
<path d="M3.33333 8.68292H2.66667V4.00739C2.66667 3.63815 2.36812 3.33946 2 3.33946H0.666667C0.298542 3.33946 0 3.63815 0 4.00739C0 4.37663 0.298542 4.65654 0.666667 4.65654H1.33333V8.66413H0.666667C0.298542 8.66413 0 8.96283 0 9.33207C0 9.70131 0.298542 10 0.666667 10H3.33333C3.70146 10 4 9.70131 4 9.33207C4 8.96283 3.70208 8.68292 3.33333 8.68292ZM2 2.00359C2.55229 2.00359 3 1.55503 3 1.00169C3 0.44835 2.55208 0 2 0C1.44792 0 1 0.448559 1 1.0019C1 1.55524 1.44771 2.00359 2 2.00359Z" fill="#0065FC"/>
</svg>
